<svg xmlns="http://www.w3.org/2000/svg" viewBox="0 0 64 64" fill="none">
  <defs>
    <linearGradient id="bg" x1="0" y1="0" x2="64" y2="64" gradientUnits="userSpaceOnUse">
      <stop offset="0%" stop-color="#a855f7"/>
      <stop offset="100%" stop-color="#7e22ce"/>
    </linearGradient>
  </defs>

  <!-- Background -->
  <rect width="64" height="64" rx="14" fill="url(#bg)"/>

  <!-- Brain left -->
  <path d="M22 38c-4 0-7-3-7-7 0-3 2-5 4-6-1-1-1-3-1-4 0-4 3-7 7-7 1 0 2 0 3 1 1-3 4-5 7-5v28c-3 0-6-1-8-3-2 2-4 3-5 3z"
        fill="white" fill-opacity="0.93"/>

  <!-- Brain right -->
  <path d="M42 38c4 0 7-3 7-7 0-3-2-5-4-6 1-1 1-3 1-4 0-4-3-7-7-7-1 0-2 0-3 1-1-3-4-5-7-5v28c3 0 6-1 8-3 2 2 4 3 5 3z"
        fill="white" fill-opacity="0.93"/>

  <!-- Stem -->
  <path d="M30 38h4v5c0 2-1 3-2 4-1-1-2-2-2-4v-5z"
        fill="white" fill-opacity="0.8"/>

  <!-- Neural dots -->
  <circle cx="28" cy="24" r="1.2" fill="#7e22ce" fill-opacity="0.5"/>
  <circle cx="36" cy="24" r="1.2" fill="#7e22ce" fill-opacity="0.5"/>
  <circle cx="32" cy="28" r="1" fill="#7e22ce" fill-opacity="0.4"/>
  <line x1="28" y1="24" x2="32" y2="28" stroke="#7e22ce" stroke-width="0.8" stroke-opacity="0.3"/>
  <line x1="36" y1="24" x2="32" y2="28" stroke="#7e22ce" stroke-width="0.8" stroke-opacity="0.3"/>

  <!-- Orbiting nodes -->
  <circle cx="18" cy="18" r="2" fill="white" fill-opacity="0.35"/>
  <circle cx="46" cy="18" r="2" fill="white" fill-opacity="0.35"/>
</svg>
